<svg width="430" height="130" viewBox="0 0 430 130" fill="none" xmlns="http://www.w3.org/2000/svg">
<path d="M430 0V130H0V0H430Z" fill="url(#paint0_linear)"/>
<path d="M0 0V68.76C25.17 85.76 55.51 95.68 88.17 95.68C153.26 95.68 209.14 56.26 233.26 0H0Z" fill="url(#paint1_linear)"/>
<path d="M63.16 17.5H19.24C18.69 17.5 18.24 17.05 18.24 16.5C18.24 15.95 18.69 15.5 19.24 15.5H63.16C63.71 15.5 64.16 15.95 64.16 16.5C64.16 17.05 63.71 17.5 63.16 17.5Z" fill="#11BFC8"/>
<path d="M51.07 22.82H19.24C18.69 22.82 18.24 22.37 18.24 21.82C18.24 21.27 18.69 20.82 19.24 20.82H51.07C51.62 20.82 52.07 21.27 52.07 21.82C52.07 22.37 51.63 22.82 51.07 22.82Z" fill="#11BFC8"/>
<path d="M270.42 110.21H226.5C225.95 110.21 225.5 109.76 225.5 109.21C225.5 108.66 225.95 108.21 226.5 108.21H270.42C270.97 108.21 271.42 108.66 271.42 109.21C271.42 109.76 270.97 110.21 270.42 110.21Z" fill="#3191D5"/>
<path d="M252.84 115.53H221.01C220.46 115.53 220.01 115.08 220.01 114.53C220.01 113.98 220.46 113.53 221.01 113.53H252.84C253.39 113.53 253.84 113.98 253.84 114.53C253.84 115.08 253.39 115.53 252.84 115.53Z" fill="#3191D5"/>
<path d="M391.92 28H348C347.45 28 347 27.55 347 27C347 26.45 347.45 26 348 26H391.92C392.47 26 392.92 26.45 392.92 27C392.92 27.55 392.47 28 391.92 28Z" fill="#468DE1"/>
<path d="M383.88 38.64H352.05C351.5 38.64 351.05 38.19 351.05 37.64C351.05 37.09 351.5 36.64 352.05 36.64H383.88C384.43 36.64 384.88 37.09 384.88 37.64C384.88 38.19 384.43 38.64 383.88 38.64Z" fill="#468DE1"/>
<path d="M389.15 33.32H357.32C356.77 33.32 356.32 32.87 356.32 32.32C356.32 31.77 356.77 31.32 357.32 31.32H389.15C389.7 31.32 390.15 31.77 390.15 32.32C390.15 32.87 389.71 33.32 389.15 33.32Z" fill="#468DE1"/>
<defs>
<linearGradient id="paint0_linear" x1="3.1517" y1="-1.53721" x2="427.492" y2="131.739" gradientUnits="userSpaceOnUse">
<stop stop-color="#00A5A6"/>
<stop offset="1" stop-color="#1753C8"/>
</linearGradient>
<linearGradient id="paint1_linear" x1="-23.3559" y1="-3.4415" x2="190" y2="66" gradientUnits="userSpaceOnUse">
<stop stop-color="#00C4AF"/>
<stop offset="1" stop-color="#3A7FBF"/>
</linearGradient>
</defs>
</svg>
