<svg width="430" height="130" viewBox="0 0 430 130" fill="none" xmlns="http://www.w3.org/2000/svg">
<path d="M430 0V130H0V0H430Z" fill="url(#paint0_linear)"/>
<path d="M0 0V26.05C23.53 101.14 104.43 137.91 182.31 101.14C281.93 54.11 336.59 78.16 381.76 130H430V0H0Z" fill="url(#paint1_linear)"/>
<path d="M76.0299 22.7L76.7099 25.36L79.3699 26.05L76.7099 26.74L76.0299 29.4L75.3399 26.74L72.6799 26.05L75.3399 25.36L76.0299 22.7Z" fill="#B294EB"/>
<path d="M147.9 32.75L148.58 35.41L151.24 36.09L148.58 36.78L147.9 39.44L147.21 36.78L144.55 36.09L147.21 35.41L147.9 32.75Z" fill="#B294EB"/>
<path d="M249.9 36.09L250.59 38.75L253.25 39.44L250.59 40.13L249.9 42.79L249.22 40.13L246.56 39.44L249.22 38.75L249.9 36.09Z" fill="#B294EB"/>
<path d="M403.52 52.43L404.21 55.09L406.87 55.78L404.21 56.47L403.52 59.13L402.84 56.47L400.17 55.78L402.84 55.09L403.52 52.43Z" fill="#B294EB"/>
<path d="M185.65 12.76L186.34 15.42L189 16.1L186.34 16.79L185.65 19.45L184.97 16.79L182.31 16.1L184.97 15.42L185.65 12.76Z" fill="#B294EB"/>
<path d="M381.34 107L382.03 109.66L384.69 110.34L382.03 111.03L381.34 113.69L380.66 111.03L378 110.34L380.66 109.66L381.34 107Z" fill="#B294EB"/>
<path d="M336.59 26.05L337.28 28.71L339.94 29.4L337.28 30.08L336.59 32.75L335.91 30.08L333.24 29.4L335.91 28.71L336.59 26.05Z" fill="#B294EB"/>
<path d="M11.4999 36.09L12.1899 38.75L14.8499 39.44L12.1899 40.13L11.4999 42.79L10.8099 40.13L8.1499 39.44L10.8099 38.75L11.4999 36.09Z" fill="#B294EB"/>
<defs>
<linearGradient id="paint0_linear" x1="2.3931" y1="1.062" x2="421.469" y2="127.092" gradientUnits="userSpaceOnUse">
<stop stop-color="#1B1464"/>
<stop offset="0.1286" stop-color="#301B71"/>
<stop offset="0.3155" stop-color="#48237F"/>
<stop offset="0.5143" stop-color="#592989"/>
<stop offset="0.7312" stop-color="#632C8F"/>
<stop offset="1" stop-color="#662D91"/>
</linearGradient>
<linearGradient id="paint1_linear" x1="0" y1="65" x2="430" y2="65" gradientUnits="userSpaceOnUse">
<stop stop-color="#1B1464"/>
<stop offset="1" stop-color="#662D91"/>
</linearGradient>
</defs>
</svg>
