<svg width="430" height="130" viewBox="0 0 430 130" fill="none" xmlns="http://www.w3.org/2000/svg">
<path d="M430 0V130H0V0H430Z" fill="url(#paint0_linear)"/>
<path d="M309.62 67.61C290.57 45.13 264.22 47.57 275.44 59.44C319.68 106.24 245.74 147.5 167.17 63.51C144.96 39.77 111.51 38.62 124.79 51.87C164.87 91.88 61.98 155.02 0 26.05C0 43.19 0 130 0 130H430V89.22C430 89.22 382.82 154.01 309.62 67.61Z" fill="url(#paint1_linear)"/>
<path d="M343.28 45.32C343.49 45.22 343.67 45.04 343.76 44.8L348.41 32.82C348.47 32.64 350.18 28.56 348.68 25.32C346.84 21.37 343.33 20.13 339.3 22C336.94 23.09 335.59 25.98 335.01 27.53C333.46 26.97 330.38 26.14 328.02 27.23C323.99 29.1 322.67 32.57 324.5 36.53C326 39.77 330.23 41.1 330.38 41.14L342.57 45.35C342.81 45.44 343.07 45.43 343.28 45.32Z" fill="#169CF5"/>
<path d="M215.17 65.17C214.9 65.17 214.62 65.11 214.37 64.98C213.95 64.77 213.63 64.4 213.49 63.94L210.12 54.02C210.12 54.02 208.64 50.2 210.2 47.16C212.08 43.51 215.56 42.43 219.28 44.35C221.07 45.27 222.15 47.2 222.75 48.67C224.29 48.3 226.49 48.06 228.28 48.99C232 50.91 233.14 54.37 231.26 58.02C229.94 60.58 226.96 61.71 225.74 62.08L215.67 65.09C215.51 65.14 215.34 65.17 215.17 65.17ZM215.39 63.31C215.39 63.32 215.39 63.31 215.39 63.31V63.31ZM215.76 45.41C214.19 45.41 212.89 46.31 211.98 48.08C210.85 50.27 211.98 53.3 211.99 53.33L215.32 63.11L225.13 60.18C225.93 59.94 228.49 59.04 229.48 57.11C230.86 54.43 230.1 52.18 227.36 50.77C225.75 49.94 223.37 50.54 222.43 50.84L221.48 51.14L221.17 50.2C220.86 49.26 219.97 46.97 218.36 46.14C217.44 45.65 216.56 45.41 215.76 45.41Z" fill="#219BEB"/>
<path d="M58.1801 10.29L59.0301 17.67C59.0801 18.07 59.3701 18.4 59.7701 18.47L67.0501 19.94C67.9301 20.12 68.0701 21.32 67.2501 21.7L60.5001 24.8C60.1301 24.97 59.9201 25.35 59.9601 25.75L60.8101 33.13C60.9101 34.02 59.8101 34.53 59.2001 33.86L54.1701 28.39C53.9001 28.09 53.4701 28.01 53.1001 28.17L46.3401 31.26C45.5201 31.63 44.7001 30.74 45.1401 29.96L48.7901 23.49C48.9901 23.14 48.9401 22.7 48.6701 22.4L43.6401 16.93C43.0301 16.27 43.6301 15.21 44.5101 15.39L51.7901 16.86C52.1801 16.94 52.5901 16.76 52.7801 16.41L56.4301 9.93998C56.8901 9.14998 58.0801 9.38998 58.1801 10.29Z" fill="#2895DE"/>
<path d="M403.33 73.58C403.09 73.58 402.85 73.53 402.63 73.43C401.97 73.13 401.58 72.43 401.66 71.71L402.25 66.53L397.5 64.36C396.83 64.06 396.44 63.37 396.53 62.64C396.61 61.91 397.15 61.33 397.87 61.18L402.99 60.14L403.59 54.95C403.67 54.22 404.21 53.64 404.93 53.49C405.65 53.34 406.37 53.68 406.73 54.31L409.3 58.85L414.42 57.81C415.14 57.66 415.86 58 416.22 58.63C416.58 59.27 416.49 60.06 415.99 60.59L412.46 64.43L415.03 68.97C415.39 69.61 415.3 70.4 414.8 70.93C414.31 71.47 413.53 71.63 412.86 71.32L408.11 69.15L404.58 72.99C404.24 73.39 403.79 73.58 403.33 73.58ZM399.23 62.94L403.3 64.8C403.97 65.11 404.36 65.8 404.27 66.52L403.76 70.96L406.78 67.67C407.28 67.13 408.05 66.97 408.72 67.28L412.79 69.14L410.59 65.25C410.23 64.61 410.32 63.82 410.82 63.29L413.84 60L409.46 60.89C408.75 61.04 408.02 60.71 407.66 60.07L405.46 56.18L404.95 60.62C404.87 61.35 404.33 61.93 403.61 62.08L399.23 62.94Z" fill="#449CFD"/>
<defs>
<linearGradient id="paint0_linear" x1="3.1517" y1="-1.53721" x2="427.492" y2="131.739" gradientUnits="userSpaceOnUse">
<stop stop-color="#208FD4"/>
<stop offset="1" stop-color="#0098FF"/>
</linearGradient>
<linearGradient id="paint1_linear" x1="-2.1959" y1="41.3915" x2="414.771" y2="172.352" gradientUnits="userSpaceOnUse">
<stop stop-color="#2293DB"/>
<stop offset="1" stop-color="#60AAFF"/>
</linearGradient>
</defs>
</svg>
