<svg width="1920" height="350" viewBox="0 0 1920 350" fill="none" xmlns="http://www.w3.org/2000/svg">
<path d="M1920 0H0V350H1920V0Z" fill="#00C4DF"/>
<path d="M1874.38 56.5602L1881.32 66.9802C1881.69 67.5402 1882.31 67.8702 1882.98 67.8802L1895.49 68.0702C1897.17 68.1002 1898.09 70.0402 1897.05 71.3502L1889.29 81.1602C1888.88 81.6802 1888.75 82.3802 1888.94 83.0102L1892.62 94.9702C1893.11 96.5702 1891.55 98.0502 1889.98 97.4702L1878.25 93.1202C1877.62 92.8902 1876.93 92.9802 1876.38 93.3602L1866.14 100.56C1864.77 101.53 1862.88 100.5 1862.95 98.8202L1863.46 86.3202C1863.49 85.6502 1863.18 85.0202 1862.65 84.6202L1852.64 77.1102C1851.3 76.1002 1851.69 73.9902 1853.31 73.5402L1865.36 70.1602C1866 69.9802 1866.51 69.5002 1866.73 68.8602L1870.78 57.0202C1871.32 55.4402 1873.45 55.1702 1874.38 56.5602Z" fill="#05CAE6"/>
<path d="M365.251 71.4898L361.051 58.3098C360.831 57.6098 360.271 57.0598 359.571 56.8498L346.331 52.8398C344.551 52.2998 344.171 49.9598 345.671 48.8798L356.911 40.8098C357.511 40.3798 357.861 39.6798 357.841 38.9498L357.561 25.1198C357.521 23.2598 359.631 22.1698 361.131 23.2698L372.281 31.4598C372.871 31.8998 373.641 32.0098 374.341 31.7698L387.411 27.2298C389.161 26.6198 390.851 28.2898 390.271 30.0498L385.921 43.1798C385.691 43.8798 385.821 44.6498 386.261 45.2398L394.611 56.2698C395.731 57.7498 394.671 59.8698 392.811 59.8598L378.981 59.7798C378.241 59.7798 377.551 60.1298 377.131 60.7398L369.221 72.0898C368.161 73.6098 365.811 73.2598 365.251 71.4898Z" fill="#05CAE6"/>
<path d="M428.66 164.48L432.46 175.73C432.66 176.33 433.15 176.79 433.76 176.96L445.18 180.2C446.71 180.64 447.08 182.64 445.8 183.59L436.28 190.68C435.77 191.06 435.48 191.66 435.51 192.29L435.96 204.15C436.02 205.74 434.23 206.71 432.93 205.79L423.24 198.93C422.72 198.56 422.06 198.48 421.47 198.69L410.32 202.78C408.82 203.33 407.35 201.92 407.82 200.4L411.35 189.07C411.54 188.47 411.42 187.81 411.03 187.31L403.7 177.97C402.72 176.72 403.6 174.88 405.19 174.86L417.06 174.72C417.69 174.71 418.28 174.39 418.63 173.87L425.24 164.01C426.13 162.7 428.15 162.97 428.66 164.48Z" fill="#05CAE6"/>
<path d="M1268.12 175.26L1266.58 162.58C1266.5 161.9 1266.09 161.31 1265.49 161L1254.17 155.08C1252.65 154.29 1252.7 152.09 1254.26 151.37L1265.85 145.99C1266.47 145.7 1266.9 145.13 1267.02 144.46L1269.15 131.86C1269.44 130.17 1271.54 129.54 1272.7 130.8L1281.4 140.16C1281.86 140.66 1282.54 140.9 1283.22 140.8L1295.86 138.94C1297.56 138.69 1298.8 140.49 1297.97 141.99L1291.76 153.15C1291.43 153.74 1291.41 154.46 1291.71 155.07L1297.39 166.51C1298.15 168.05 1296.82 169.79 1295.14 169.46L1282.6 167C1281.93 166.87 1281.24 167.08 1280.76 167.55L1271.63 176.49C1270.4 177.69 1268.33 176.97 1268.12 175.26Z" fill="#05CAE6"/>
<path d="M836.283 192.108L848.073 187.738C848.703 187.508 849.173 186.978 849.343 186.328L852.423 174.128C852.833 172.488 854.943 172.038 855.993 173.368L863.793 183.238C864.213 183.768 864.853 184.048 865.523 184.008L878.073 183.168C879.753 183.058 880.843 184.928 879.903 186.328L872.933 196.798C872.563 197.358 872.493 198.058 872.733 198.688L877.403 210.368C878.033 211.938 876.593 213.538 874.963 213.088L862.853 209.698C862.203 209.518 861.513 209.668 861.003 210.098L851.343 218.148C850.043 219.228 848.073 218.358 848.003 216.668L847.483 204.098C847.453 203.428 847.103 202.818 846.533 202.458L835.883 195.758C834.483 194.838 834.703 192.698 836.283 192.108Z" fill="#05CAE6"/>
<path d="M215.84 23.25L212.51 33.53C212.33 34.08 212.44 34.68 212.79 35.13L219.37 43.7C220.25 44.85 219.43 46.51 217.98 46.51L207.17 46.52C206.59 46.52 206.06 46.8 205.73 47.28L199.61 56.18C198.79 57.38 196.95 57.11 196.5 55.73L193.16 45.45C192.98 44.9 192.55 44.48 191.99 44.31L181.63 41.24C180.24 40.83 179.93 39 181.1 38.15L189.84 31.79C190.31 31.45 190.57 30.91 190.56 30.33L190.28 19.53C190.24 18.08 191.88 17.22 193.06 18.07L201.81 24.42C202.28 24.76 202.88 24.85 203.42 24.65L213.61 21.04C214.96 20.58 216.29 21.87 215.84 23.25Z" fill="#05CAE6"/>
<path d="M1566.95 134.74C1566.95 134.74 1566.49 144.16 1556.88 146.67C1549.57 148.57 1542.92 143.68 1541.03 136.4C1538.68 127.39 1544.36 116.63 1558.45 102.07C1577.86 107.91 1588.06 114.53 1590.4 123.55C1592.29 130.82 1588.87 138.34 1581.57 140.25C1571.95 142.74 1566.95 134.74 1566.95 134.74Z" fill="#05CAE6"/>
<path d="M1868.85 236.12C1868.85 236.12 1861.06 231.7 1863.05 222.47C1864.57 215.46 1871.57 211.92 1878.55 213.43C1887.2 215.3 1893.89 224.72 1900.2 242.91C1886.94 256.86 1876.95 262.68 1868.3 260.8C1861.32 259.29 1856.41 253.17 1857.93 246.16C1859.93 236.93 1868.85 236.12 1868.85 236.12Z" fill="#05CAE6"/>
<path d="M968.349 204.79C968.349 204.79 960.609 204.27 958.699 196.32C957.249 190.28 961.379 184.89 967.389 183.44C974.839 181.65 983.589 186.48 995.349 198.3C990.249 214.17 984.639 222.45 977.189 224.24C971.179 225.68 965.049 222.76 963.599 216.72C961.689 208.77 968.349 204.79 968.349 204.79Z" fill="#05CAE6"/>
<path d="M179.911 297.21C179.911 297.21 176.721 306.08 166.801 305.66C159.261 305.34 154.341 298.72 154.651 291.22C155.041 281.92 163.601 273.3 181.321 263.51C198.161 274.76 205.971 284.06 205.581 293.36C205.271 300.86 199.801 307.05 192.261 306.73C182.351 306.32 179.911 297.21 179.911 297.21Z" fill="#05CAE6"/>
<path d="M1720.93 284.05C1720.93 284.05 1726.83 280.77 1731.99 285.67C1735.91 289.4 1735.44 295.29 1731.73 299.19C1727.13 304.02 1718.45 304.64 1704.27 301.57C1700.49 287.56 1700.66 278.85 1705.26 274.02C1708.97 270.12 1714.83 269.36 1718.75 273.08C1723.91 277.99 1720.93 284.05 1720.93 284.05Z" fill="#05CAE6"/>
<path d="M1092.92 274.77C1092.92 274.77 1097.63 279.06 1094.8 285.15C1092.65 289.78 1087.24 291.13 1082.63 288.99C1076.92 286.34 1073.76 278.75 1072.24 265.15C1083.63 257.55 1091.47 255.09 1097.17 257.74C1101.77 259.88 1104.22 264.9 1102.07 269.52C1099.24 275.61 1092.92 274.77 1092.92 274.77Z" fill="#05CAE6"/>
<path d="M1257.72 45.17C1256.06 56.08 1248.95 64.06 1241.83 62.97C1238.27 62.43 1235.38 59.73 1233.59 55.8L1225.68 56.48L1231.99 50.56C1231.48 47.7 1231.43 44.53 1231.93 41.26C1233.59 30.35 1240.7 22.37 1247.82 23.46C1254.95 24.53 1259.38 34.26 1257.72 45.17Z" fill="#05CAE6"/>
<path d="M1587.17 270.32C1597.57 271.23 1605.53 277.46 1604.93 284.25C1604.63 287.64 1602.26 290.53 1598.66 292.46L1599.78 299.88L1593.81 294.28C1591.14 294.93 1588.16 295.17 1585.03 294.9C1574.63 293.99 1566.67 287.76 1567.26 280.97C1567.86 274.18 1576.77 269.41 1587.17 270.32Z" fill="#05CAE6"/>
<path d="M497.92 278.87C501.29 269.06 509.21 262.89 515.61 265.09C518.81 266.19 521.02 269.17 522.02 273.11L529.44 273.82L522.61 278.23C522.6 280.96 522.11 283.89 521.1 286.84C517.73 296.65 509.81 302.82 503.41 300.62C497.01 298.41 494.55 288.68 497.92 278.87Z" fill="#05CAE6"/>
<path d="M279.771 270.49C287.871 273.71 292.741 280.61 290.641 285.89C289.591 288.53 287.001 290.28 283.651 290.95L282.761 297.16L279.331 291.25C277.041 291.13 274.591 290.61 272.161 289.64C264.061 286.42 259.191 279.52 261.291 274.24C263.391 268.96 271.671 267.27 279.771 270.49Z" fill="#05CAE6"/>
<path d="M1351.34 306.08C1348.08 319.22 1338.49 328.15 1329.91 326.02C1325.62 324.96 1322.4 321.33 1320.66 316.33L1310.92 316.26L1319.3 309.74C1319 306.19 1319.3 302.32 1320.28 298.38C1323.54 285.24 1333.13 276.31 1341.71 278.44C1350.29 280.56 1354.6 292.94 1351.34 306.08Z" fill="#05CAE6"/>
<path d="M523.38 36.2298C522.36 27.5598 526.12 19.9898 531.77 19.3198C534.6 18.9898 537.37 20.4398 539.56 23.0698L545.45 20.8998L541.87 26.7398C542.86 28.8098 543.56 31.2198 543.86 33.8198C544.88 42.4898 541.12 50.0598 535.47 50.7298C529.82 51.3998 524.41 44.9098 523.38 36.2298Z" fill="#05CAE6"/>
<path d="M776.331 70.8201L806.111 70.2401C808.021 70.2001 809.541 68.6201 809.511 66.7101L809.291 55.7301C809.171 49.7901 810.911 45.2401 812.391 42.4601C812.691 41.8901 812.021 41.3101 811.511 41.6901C808.301 44.0601 802.961 47.4301 798.301 47.5201L775.881 47.9601C773.971 48.0001 772.451 49.5801 772.481 51.4901L772.791 67.4301C772.831 69.3401 774.411 70.8601 776.331 70.8201Z" fill="#05CAE6"/>
<path d="M1047.98 39.2701L1070.03 62.7401C1071.45 64.2501 1073.82 64.3201 1075.32 62.9101L1083.97 54.7801C1088.65 50.3801 1093.56 48.4801 1096.86 47.6501C1097.53 47.4801 1097.52 46.5201 1096.84 46.3801C1092.61 45.5301 1086.04 43.6701 1082.59 40.0001L1066 22.3401C1064.58 20.8301 1062.21 20.7601 1060.71 22.1701L1048.15 33.9701C1046.64 35.3901 1046.56 37.7601 1047.98 39.2701Z" fill="#05CAE6"/>
<path d="M1713.56 62.41L1719.3 95.71C1719.67 97.85 1721.7 99.28 1723.84 98.91L1736.12 96.79C1742.76 95.65 1748.16 96.81 1751.53 98C1752.22 98.24 1752.76 97.39 1752.24 96.88C1749.03 93.69 1744.35 88.27 1743.45 83.06L1739.12 58C1738.75 55.86 1736.72 54.43 1734.58 54.8L1716.76 57.87C1714.62 58.24 1713.19 60.27 1713.56 62.41Z" fill="#05CAE6"/>
<path d="M1343.97 32.0202L1325.21 58.4402C1324 60.1402 1324.4 62.4902 1326.1 63.6902L1335.84 70.6102C1341.11 74.3502 1343.97 78.8202 1345.44 81.9102C1345.74 82.5402 1346.68 82.3302 1346.68 81.6301C1346.68 77.2901 1347.2 70.4402 1350.13 66.3102L1364.25 46.4202C1365.46 44.7202 1365.06 42.3702 1363.36 41.1702L1349.22 31.1302C1347.53 29.9302 1345.18 30.3202 1343.97 32.0202Z" fill="#05CAE6"/>
<path d="M1496.61 71.1999L1507.76 38.8699C1508.48 36.7899 1507.37 34.5299 1505.3 33.8099L1493.38 29.6999C1486.93 27.4799 1482.71 23.7999 1480.3 21.1099C1479.81 20.5599 1478.91 21.0499 1479.12 21.7599C1480.41 26.1599 1481.92 33.2499 1480.17 38.2999L1471.78 62.6299C1471.06 64.7099 1472.17 66.9699 1474.24 67.6899L1491.54 73.6599C1493.63 74.3799 1495.89 73.2699 1496.61 71.1999Z" fill="#05CAE6"/>
<path d="M62.9601 103.66L27.9901 119.69C25.7401 120.72 24.7601 123.38 25.7901 125.62L31.7001 138.51C34.9001 145.48 35.1901 151.77 34.8701 155.82C34.8001 156.65 35.9001 156.99 36.3101 156.27C38.8901 151.81 43.4901 145.07 48.9601 142.57L75.2801 130.51C77.5301 129.48 78.5101 126.82 77.4801 124.58L68.9001 105.86C67.8601 103.61 65.2101 102.63 62.9601 103.66Z" fill="#05CAE6"/>
<path d="M1142.9 99.5699C1144.39 97.4299 1143.86 94.4999 1141.72 93.0099C1141.52 92.8699 1141.3 92.7499 1141.08 92.6399L1141.25 77.7299C1142.04 77.4099 1142.75 76.8799 1143.28 76.1499L1168.72 80.2099C1168.95 81.3499 1169.61 82.4199 1170.64 83.1399C1172.78 84.6299 1175.71 84.0999 1177.2 81.9599C1178.69 79.8199 1178.16 76.8899 1176.02 75.3999C1175.54 75.0599 1175.01 74.8399 1174.48 74.6999L1171.14 51.8599C1171.7 51.5299 1172.2 51.0799 1172.6 50.4999C1174.09 48.3599 1173.56 45.4299 1171.42 43.9399C1169.28 42.4499 1166.35 42.9799 1164.86 45.1199C1163.37 47.2599 1163.9 50.1899 1166.04 51.6799C1166.51 52.0099 1167.02 52.2299 1167.55 52.3699L1170.9 75.2299C1170.35 75.5599 1169.86 76.0099 1169.47 76.5699C1169.45 76.5899 1169.44 76.6199 1169.42 76.6399L1144.13 72.6099C1143.93 71.3899 1143.27 70.2599 1142.17 69.4999C1140.03 68.0099 1137.1 68.5399 1135.61 70.6799C1134.12 72.8199 1134.65 75.7499 1136.79 77.2399C1137.06 77.4199 1137.33 77.5799 1137.62 77.6999L1137.45 92.4399C1136.55 92.7599 1135.74 93.3399 1135.15 94.1899C1133.66 96.3299 1134.19 99.2599 1136.33 100.75C1138.48 102.23 1141.41 101.7 1142.9 99.5699Z" fill="#05CAE6"/>
<path d="M640.731 137.78C641.801 139.04 643.701 139.2 644.961 138.12C645.081 138.02 645.191 137.9 645.291 137.79L654.451 140.32C654.521 140.86 654.731 141.38 655.101 141.83L648.461 156.86C647.721 156.82 646.961 157.05 646.341 157.57C645.081 158.64 644.921 160.54 646.001 161.8C647.081 163.06 648.971 163.22 650.231 162.14C650.521 161.9 650.741 161.61 650.911 161.3L665.531 162.96C665.641 163.36 665.841 163.74 666.131 164.08C667.201 165.34 669.101 165.5 670.361 164.42C671.621 163.34 671.781 161.45 670.701 160.19C669.631 158.93 667.731 158.77 666.471 159.85C666.191 160.09 665.971 160.37 665.801 160.67L651.161 159.01C651.041 158.62 650.851 158.24 650.571 157.91C650.561 157.9 650.541 157.88 650.531 157.87L657.131 142.93C657.911 143.01 658.721 142.78 659.371 142.23C660.631 141.16 660.791 139.26 659.711 138C658.641 136.74 656.741 136.58 655.481 137.66C655.321 137.79 655.181 137.94 655.061 138.1L646.001 135.59C645.951 134.98 645.721 134.39 645.301 133.89C644.231 132.63 642.331 132.47 641.071 133.55C639.801 134.62 639.651 136.52 640.731 137.78Z" fill="#05CAE6"/>
<path d="M958.62 321.04C957.1 318.91 954.141 318.41 952.011 319.92C951.811 320.07 951.621 320.23 951.451 320.4L937.381 315.16C937.351 314.3 937.081 313.45 936.571 312.69L949.071 289.95C950.231 290.12 951.46 289.86 952.5 289.12C954.631 287.6 955.13 284.64 953.62 282.51C952.1 280.38 949.141 279.88 947.011 281.39C946.531 281.73 946.131 282.15 945.821 282.62L923.04 278.02C922.92 277.38 922.66 276.75 922.25 276.18C920.73 274.05 917.771 273.55 915.641 275.06C913.511 276.58 913.011 279.54 914.521 281.67C916.041 283.8 919.001 284.3 921.131 282.79C921.601 282.45 921.99 282.05 922.3 281.59L945.11 286.2C945.24 286.83 945.491 287.45 945.891 288.01C945.911 288.03 945.931 288.05 945.941 288.08L933.511 310.68C932.291 310.45 930.981 310.7 929.891 311.47C927.761 312.99 927.261 315.95 928.771 318.08C930.291 320.21 933.251 320.71 935.381 319.2C935.641 319.01 935.88 318.8 936.1 318.57L950.021 323.75C950.011 324.71 950.291 325.68 950.891 326.52C952.411 328.65 955.37 329.15 957.5 327.64C959.64 326.14 960.14 323.18 958.62 321.04Z" fill="#05CAE6"/>
<path d="M1204.25 316.61C1204.64 314.48 1203.24 312.43 1201.11 312.04C1200.91 312 1200.7 311.99 1200.5 311.98L1195.51 300.6C1196 300.09 1196.35 299.44 1196.51 298.7L1217.22 293.04C1217.79 293.83 1218.65 294.41 1219.68 294.6C1221.81 294.99 1223.86 293.59 1224.25 291.46C1224.64 289.33 1223.24 287.28 1221.11 286.89C1220.63 286.8 1220.15 286.81 1219.7 286.89L1209.32 270.7C1209.63 270.25 1209.86 269.74 1209.96 269.17C1210.35 267.04 1208.95 264.99 1206.82 264.6C1204.69 264.21 1202.64 265.61 1202.25 267.74C1201.86 269.87 1203.26 271.92 1205.39 272.31C1205.86 272.4 1206.33 272.39 1206.77 272.31L1217.16 288.52C1216.86 288.96 1216.64 289.47 1216.53 290.03C1216.53 290.05 1216.52 290.08 1216.52 290.1L1195.94 295.72C1195.37 294.86 1194.48 294.23 1193.39 294.03C1191.26 293.64 1189.21 295.04 1188.82 297.17C1188.43 299.3 1189.83 301.35 1191.96 301.74C1192.22 301.79 1192.49 301.81 1192.75 301.81L1197.68 313.06C1197.11 313.61 1196.69 314.33 1196.53 315.18C1196.14 317.31 1197.54 319.36 1199.67 319.75C1201.81 320.15 1203.86 318.74 1204.25 316.61Z" fill="#05CAE6"/>
<path d="M435.051 103.85C437.221 103.15 438.411 100.83 437.711 98.6701C437.641 98.4601 437.561 98.2701 437.461 98.0801L445.491 87.8001C446.211 88.0001 446.981 88.0001 447.751 87.7801L463.301 104.11C462.851 105.03 462.751 106.12 463.081 107.17C463.781 109.34 466.101 110.53 468.261 109.83C470.431 109.13 471.621 106.81 470.921 104.65C470.761 104.16 470.521 103.72 470.221 103.35L480.021 85.6901C480.591 85.7601 481.181 85.7101 481.751 85.5201C483.921 84.8201 485.111 82.5001 484.411 80.3401C483.711 78.1701 481.391 76.9801 479.231 77.6801C477.061 78.3801 475.871 80.7001 476.571 82.8601C476.721 83.3401 476.961 83.7701 477.251 84.1401L467.441 101.82C466.881 101.76 466.301 101.81 465.741 101.99C465.721 102 465.691 102.01 465.671 102.02L450.221 85.7901C450.731 84.8401 450.871 83.6901 450.511 82.5901C449.811 80.4201 447.491 79.2301 445.331 79.9301C443.161 80.6301 441.971 82.9501 442.671 85.1101C442.761 85.3801 442.871 85.6301 443.001 85.8701L435.051 96.0001C434.261 95.7401 433.381 95.7201 432.521 96.0001C430.351 96.7001 429.161 99.0201 429.861 101.18C430.561 103.35 432.881 104.54 435.051 103.85Z" fill="#05CAE6"/>
<path d="M944.7 42.04C946.4 42.38 948.06 41.28 948.4 39.58C948.43 39.42 948.45 39.25 948.45 39.09L957.62 35.23C958.02 35.63 958.54 35.92 959.13 36.05L963.42 52.69C962.78 53.14 962.31 53.82 962.14 54.64C961.8 56.34 962.9 58 964.6 58.34C966.3 58.68 967.96 57.58 968.3 55.88C968.38 55.5 968.38 55.12 968.32 54.75L981.4 46.63C981.75 46.88 982.16 47.07 982.62 47.16C984.32 47.5 985.98 46.4 986.32 44.7C986.66 43 985.56 41.34 983.86 41C982.16 40.66 980.5 41.76 980.16 43.46C980.08 43.84 980.08 44.21 980.14 44.57L967.05 52.7C966.7 52.45 966.3 52.27 965.85 52.18C965.83 52.18 965.81 52.18 965.79 52.17L961.53 35.63C962.22 35.19 962.74 34.47 962.91 33.6C963.25 31.9 962.15 30.24 960.45 29.9C958.75 29.56 957.09 30.66 956.75 32.36C956.71 32.57 956.69 32.78 956.69 32.99L947.63 36.81C947.2 36.34 946.62 36 945.95 35.87C944.25 35.53 942.59 36.63 942.25 38.33C941.89 40.05 942.99 41.7 944.7 42.04Z" fill="#05CAE6"/>
<path d="M772.909 290.28C772.979 290.37 773.059 290.47 773.139 290.57C775.179 293.01 779.079 293.08 781.579 290.81C782.469 290 782.679 288.6 781.889 287.61C780.609 285.99 777.449 286.15 775.579 287.2L773.269 288.48C772.629 288.82 772.449 289.67 772.909 290.28Z" fill="#05CAE6"/>
<path d="M763.199 300.03C769.259 307.99 780.619 309.52 788.579 303.46C796.539 297.4 798.069 286.04 792.009 278.08C785.949 270.12 774.589 268.59 766.629 274.65C758.679 280.71 757.139 292.08 763.199 300.03ZM778.839 281.12C779.739 282.2 779.879 283.78 778.239 285.02L778.329 285.13C780.639 284.8 782.429 285.42 783.789 287.04C785.099 288.61 785.009 290.97 782.969 292.68C779.769 295.36 774.629 295.15 771.499 291.39C771.289 291.14 771.099 290.89 770.929 290.65C770.029 289.36 770.419 287.62 771.739 286.89L775.069 285.06C777.369 283.82 777.999 282.75 777.289 281.83C776.159 280.43 773.119 280.36 770.119 282.86C766.369 285.99 765.649 290.59 769.149 294.77C772.829 299.17 779.259 300.09 784.499 295.71C788.809 292.11 789.009 286.94 785.669 282.94C784.599 281.66 783.379 280.63 782.129 279.97C781.719 279.76 781.559 279.26 781.769 278.87C781.969 278.51 782.409 278.38 782.789 278.57C784.459 279.42 785.829 280.6 787.159 282.2C790.859 286.63 790.899 292.98 785.939 297.12C780.619 301.57 772.789 301.54 767.779 295.55C763.849 290.85 764.359 285.05 768.669 281.45C772.549 278.21 776.719 278.58 778.839 281.12Z" fill="#05CAE6"/>
<path d="M262.631 88.8596C262.551 88.8296 262.471 88.7996 262.381 88.7596C260.231 87.9796 257.791 89.3496 257.061 91.6596C256.801 92.4796 257.181 93.4196 258.021 93.7496C259.401 94.2896 261.301 93.0596 262.081 91.7296L263.051 90.0996C263.331 89.6596 263.141 89.0696 262.631 88.8596Z" fill="#05CAE6"/>
<path d="M265.13 79.3098C258.5 76.5598 250.9 79.7098 248.16 86.3398C245.41 92.9698 248.56 100.57 255.19 103.31C261.82 106.05 269.42 102.91 272.16 96.2798C274.91 89.6598 271.76 82.0598 265.13 79.3098ZM262.26 96.6798C261.31 96.3398 260.65 95.3998 261.23 94.0498L261.14 94.0198C259.82 95.0598 258.49 95.3198 257.07 94.7998C255.69 94.2998 254.89 92.7998 255.54 91.0098C256.56 88.1998 259.82 86.4698 263.12 87.6698C263.34 87.7498 263.54 87.8298 263.74 87.9298C264.76 88.3998 265.15 89.6298 264.59 90.5498L263.18 92.8898C262.2 94.4898 262.2 95.3798 262.97 95.6898C264.17 96.1498 266.09 95.0998 267.04 92.4698C268.23 89.1798 267.02 86.0698 263.34 84.7398C259.47 83.3398 255.15 85.0898 253.48 89.6898C252.11 93.4798 253.85 96.7598 257.36 98.0298C258.48 98.4398 259.61 98.6298 260.63 98.5898C260.96 98.5798 261.24 98.8298 261.25 99.1398C261.26 99.4298 261.03 99.6698 260.72 99.6898C259.38 99.7698 258.11 99.5298 256.7 99.0198C252.81 97.6098 250.49 93.6898 252.07 89.3298C253.76 84.6498 258.62 81.8398 263.9 83.7498C268.03 85.2498 269.81 89.0198 268.43 92.8098C267.21 96.2098 264.49 97.4898 262.26 96.6798Z" fill="#05CAE6"/>
<path d="M386.161 284.91C386.041 284.94 385.921 284.97 385.791 285.01C382.631 285.92 380.931 289.58 382.041 292.9C382.441 294.08 383.671 294.86 384.941 294.53C387.011 293.99 388.181 290.94 387.971 288.73L387.731 286.01C387.661 285.25 386.931 284.73 386.161 284.91Z" fill="#05CAE6"/>
<path d="M380.991 271.65C370.931 274.06 364.731 284.18 367.141 294.24C369.551 304.3 379.671 310.5 389.731 308.09C399.791 305.68 405.991 295.56 403.581 285.5C401.161 275.43 391.051 269.23 380.991 271.65ZM392.361 294.35C390.961 294.75 389.401 294.22 388.921 292.15L388.781 292.19C388.121 294.52 386.791 295.95 384.691 296.56C382.661 297.15 380.461 296.08 379.691 293.43C378.491 289.28 380.841 284.51 385.701 283.11C386.021 283.02 386.341 282.94 386.641 282.88C388.231 282.56 389.731 283.66 389.861 285.22L390.201 289.14C390.411 291.83 391.171 292.88 392.331 292.59C394.121 292.11 395.461 289.26 394.351 285.38C392.951 280.53 388.901 277.93 383.481 279.49C377.771 281.13 374.221 286.83 376.181 293.63C377.791 299.22 382.601 301.57 387.781 300.07C389.441 299.59 390.921 298.87 392.071 297.95C392.441 297.65 392.981 297.71 393.261 298.07C393.521 298.41 393.451 298.88 393.111 299.16C391.611 300.39 389.921 301.19 387.851 301.78C382.111 303.43 376.091 300.82 374.231 294.4C372.241 287.51 375.531 280.11 383.301 277.87C389.391 276.11 394.661 279.02 396.271 284.61C397.741 289.61 395.651 293.4 392.361 294.35Z" fill="#05CAE6"/>
<path d="M1451.82 303.41C1451.83 303.5 1451.83 303.6 1451.84 303.7C1452.12 306.22 1454.67 307.98 1457.33 307.57C1458.28 307.42 1459.03 306.59 1458.94 305.59C1458.8 303.95 1456.64 302.67 1454.94 302.54L1452.84 302.37C1452.28 302.32 1451.78 302.81 1451.82 303.41Z" fill="#05CAE6"/>
<path d="M1441.09 305.61C1441.61 313.55 1448.47 319.57 1456.41 319.05C1464.35 318.53 1470.37 311.67 1469.85 303.73C1469.33 295.79 1462.47 289.77 1454.53 290.29C1446.59 290.81 1440.57 297.67 1441.09 305.61ZM1459.78 299.95C1459.9 301.06 1459.3 302.17 1457.67 302.27L1457.68 302.38C1459.36 303.18 1460.27 304.38 1460.46 306.05C1460.64 307.67 1459.54 309.2 1457.44 309.43C1454.14 309.8 1450.83 307.4 1450.4 303.53C1450.37 303.28 1450.36 303.03 1450.35 302.78C1450.32 301.53 1451.35 300.54 1452.54 300.64L1455.55 300.89C1457.62 301.08 1458.51 300.65 1458.44 299.72C1458.31 298.3 1456.32 296.91 1453.24 297.25C1449.38 297.68 1446.88 300.41 1447.36 304.72C1447.86 309.26 1451.72 312.69 1457.12 312.09C1461.57 311.6 1463.97 308.26 1463.51 304.14C1463.36 302.82 1463.01 301.6 1462.46 300.61C1462.28 300.29 1462.39 299.89 1462.71 299.72C1463 299.57 1463.35 299.68 1463.52 299.97C1464.26 301.27 1464.64 302.65 1464.82 304.3C1465.33 308.87 1462.56 313.09 1457.45 313.66C1451.97 314.27 1446.79 310.81 1446.1 304.63C1445.56 299.78 1448.45 296.17 1452.9 295.67C1456.89 295.25 1459.49 297.33 1459.78 299.95Z" fill="#05CAE6"/>
<path d="M663.101 37.2498C663.051 37.3298 663.001 37.4198 662.961 37.5098C661.781 39.8298 662.991 42.7898 665.511 43.9298C666.411 44.3398 667.521 44.0398 668.021 43.1298C668.831 41.6398 667.691 39.3198 666.291 38.2498L664.581 36.9198C664.111 36.5698 663.411 36.7098 663.101 37.2498Z" fill="#05CAE6"/>
<path d="M652.63 33.0997C648.6 40.2297 651.12 49.2697 658.24 53.2997C665.36 57.3297 674.41 54.8097 678.44 47.6897C682.47 40.5597 679.95 31.5197 672.83 27.4897C665.71 23.4597 656.66 25.9697 652.63 33.0997ZM671.91 38.7597C671.39 39.7897 670.24 40.3997 668.78 39.5697L668.73 39.6697C669.72 41.2997 669.84 42.8497 669.05 44.3897C668.29 45.8797 666.49 46.5797 664.55 45.5997C661.5 44.0597 660 40.1297 661.81 36.5497C661.93 36.3197 662.05 36.0897 662.19 35.8797C662.87 34.7897 664.31 34.5197 665.28 35.2697L667.73 37.1897C669.4 38.5197 670.42 38.6497 670.87 37.8097C671.56 36.5097 670.63 34.1997 667.78 32.7497C664.22 30.9397 660.53 31.8797 658.51 35.8697C656.39 40.0597 657.77 45.1897 662.76 47.7197C666.86 49.7997 670.82 48.2797 672.74 44.4797C673.36 43.2597 673.73 42.0097 673.83 40.8597C673.86 40.4797 674.18 40.1997 674.54 40.2297C674.87 40.2597 675.11 40.5597 675.09 40.8997C674.99 42.4297 674.54 43.8397 673.77 45.3597C671.63 49.5797 666.87 51.6497 662.15 49.2597C657.09 46.6897 654.58 40.7997 657.47 35.0897C659.74 30.6197 664.26 29.1297 668.36 31.2097C672.06 33.0797 673.13 36.3397 671.91 38.7597Z" fill="#05CAE6"/>
<path d="M1165.57 187.123C1165.46 187.135 1165.35 187.16 1165.24 187.172C1162.35 187.701 1160.51 190.817 1161.21 193.871C1161.46 194.955 1162.49 195.756 1163.65 195.583C1165.55 195.288 1166.85 192.664 1166.85 190.682L1166.88 188.231C1166.88 187.554 1166.27 187.024 1165.57 187.123Z" fill="#05CAE6"/>
<path d="M1162.12 174.845C1152.95 176.113 1146.55 184.586 1147.81 193.761C1149.08 202.936 1157.56 209.339 1166.73 208.071C1175.91 206.802 1182.31 198.33 1181.04 189.155C1179.77 179.98 1171.3 173.576 1162.12 174.845ZM1170.26 196.076C1168.98 196.31 1167.64 195.707 1167.4 193.822L1167.27 193.847C1166.48 195.867 1165.18 197.024 1163.25 197.381C1161.39 197.726 1159.51 196.581 1159.07 194.155C1158.37 190.349 1160.87 186.31 1165.33 185.485C1165.62 185.436 1165.91 185.386 1166.19 185.362C1167.64 185.214 1168.87 186.335 1168.85 187.726L1168.81 191.248C1168.76 193.662 1169.34 194.672 1170.41 194.5C1172.05 194.229 1173.49 191.803 1172.84 188.244C1172.01 183.798 1168.64 181.125 1163.66 182.049C1158.43 183.01 1154.77 187.776 1155.92 194.007C1156.87 199.13 1160.94 201.642 1165.68 200.768C1167.2 200.485 1168.59 199.968 1169.69 199.253C1170.04 199.019 1170.52 199.118 1170.73 199.463C1170.93 199.783 1170.83 200.202 1170.51 200.423C1169.07 201.384 1167.49 201.95 1165.6 202.295C1160.34 203.268 1155.2 200.411 1154.11 194.524C1152.94 188.207 1156.52 181.901 1163.64 180.584C1169.22 179.549 1173.66 182.603 1174.61 187.714C1175.47 192.32 1173.28 195.51 1170.26 196.076Z" fill="#05CAE6"/>
<path d="M886.279 103.99L884.859 108.49L888.079 110.71L889.499 106.21L886.279 103.99Z" fill="#05CAE6"/>
<path d="M900.81 111.59C903.21 103.98 898.99 95.86 891.37 93.45C883.76 91.05 875.64 95.27 873.23 102.89C870.82 110.51 875.05 118.62 882.67 121.03C890.29 123.43 898.41 119.2 900.81 111.59ZM886.83 114.68L887.54 112.43L884.31 110.22L883.64 112.36L881.83 111.79L882.68 109.11L879.21 106.73L879.76 104.98L883.23 107.37L884.65 102.87L881.18 100.48L881.72 98.77L885.19 101.16L885.77 99.33L887.58 99.9L886.83 102.28L890.05 104.5L890.75 102.27L892.53 102.83L891.65 105.61L894.83 107.8L894.29 109.51L891.11 107.32L889.69 111.82L892.87 114.01L892.33 115.71L889.15 113.53L888.61 115.24L886.83 114.68Z" fill="#05CAE6"/>
<path d="M1628.96 49.5799L1632.62 47.1799L1631.62 43.6899L1627.95 46.0899L1628.96 49.5799Z" fill="#05CAE6"/>
<path d="M1622.97 35.5697C1616.76 39.6297 1615.02 47.9597 1619.09 54.1597C1623.16 60.3597 1631.48 62.1097 1637.68 58.0397C1643.89 53.9797 1645.63 45.6497 1641.56 39.4497C1637.49 33.2497 1629.18 31.5097 1622.97 35.5697ZM1634.85 41.5697L1633.01 42.7697L1634.03 46.2597L1635.77 45.1197L1636.73 46.5897L1634.54 48.0197L1635.64 51.7697L1634.21 52.6997L1633.12 48.9397L1629.45 51.3397L1630.54 55.0997L1629.15 56.0097L1628.06 52.2497L1626.57 53.2297L1625.61 51.7597L1627.55 50.4897L1626.54 46.9997L1624.72 48.1897L1623.77 46.7397L1626.04 45.2597L1625.04 41.8097L1626.43 40.8997L1627.43 44.3497L1631.1 41.9497L1630.11 38.4997L1631.5 37.5897L1632.5 41.0297L1633.89 40.1197L1634.85 41.5697Z" fill="#05CAE6"/>
<path d="M631.49 277.67L631.42 271.28L626.34 269.78L626.4 276.17L631.49 277.67Z" fill="#05CAE6"/>
<path d="M609.569 274.02C609.689 284.84 618.549 293.51 629.369 293.4C640.189 293.28 648.859 284.42 648.749 273.6C648.629 262.78 639.769 254.11 628.949 254.22C618.129 254.34 609.459 263.2 609.569 274.02ZM626.279 264.13L626.309 267.33L631.399 268.82L631.369 265.79L633.929 265.76L633.969 269.57L639.439 271.17L639.469 273.66L633.999 272.04L634.069 278.43L639.539 280.05L639.569 282.48L634.099 280.86L634.129 283.46L631.569 283.49L631.529 280.1L626.439 278.6L626.469 281.77L623.939 281.8L623.899 277.85L618.879 276.37L618.849 273.94L623.869 275.42L623.799 269.03L618.779 267.55L618.749 265.14L623.769 266.61L623.739 264.18L626.279 264.13Z" fill="#05CAE6"/>
<path d="M1355.44 211.23L1348.67 209.7L1345.8 214.69L1352.57 216.23L1355.44 211.23Z" fill="#05CAE6"/>
<path d="M1346.07 233.47C1357.52 236.07 1368.91 228.89 1371.51 217.43C1374.11 205.98 1366.93 194.59 1355.47 191.99C1344.02 189.39 1332.63 196.57 1330.03 208.03C1327.43 219.48 1334.61 230.87 1346.07 233.47ZM1339.83 213.34L1343.22 214.11L1346.07 209.11L1342.86 208.38L1343.48 205.66L1347.52 206.58L1350.59 201.2L1353.22 201.8L1350.13 207.17L1356.89 208.7L1359.97 203.32L1362.54 203.9L1359.46 209.28L1362.21 209.9L1361.59 212.62L1358 211.81L1355.13 216.8L1358.49 217.56L1357.88 220.24L1353.7 219.29L1350.87 224.21L1348.3 223.63L1351.13 218.71L1344.36 217.18L1341.53 222.1L1338.97 221.52L1341.78 216.59L1339.21 216.01L1339.83 213.34Z" fill="#05CAE6"/>
<path d="M183.879 182.25L182.179 177.87L178.289 178.14L179.989 182.53L183.879 182.25Z" fill="#05CAE6"/>
<path d="M167.839 185.38C170.709 192.8 179.039 196.49 186.459 193.62C193.879 190.75 197.569 182.42 194.699 175C191.829 167.58 183.499 163.89 176.079 166.76C168.669 169.63 164.979 177.96 167.839 185.38ZM176.799 174.27L177.649 176.47L181.539 176.18L180.739 174.1L182.499 173.42L183.509 176.04L187.689 175.73L188.349 177.44L184.159 177.73L185.849 182.11L190.039 181.81L190.679 183.48L186.489 183.78L187.179 185.56L185.419 186.24L184.519 183.92L180.629 184.2L181.469 186.38L179.729 187.05L178.679 184.34L174.839 184.61L174.199 182.95L178.039 182.68L176.349 178.29L172.509 178.56L171.869 176.9L175.699 176.62L175.059 174.95L176.799 174.27Z" fill="#05CAE6"/>
<path d="M551.471 131.26L555.281 133.99L558.371 131.64L554.571 128.91L551.471 131.26Z" fill="#05CAE6"/>
<path d="M563.151 119.9C556.711 115.27 547.741 116.74 543.111 123.18C538.481 129.62 539.951 138.59 546.391 143.22C552.831 147.85 561.801 146.38 566.431 139.94C571.061 133.5 569.581 124.53 563.151 119.9ZM561.731 134.06L559.821 132.69L556.731 135.05L558.541 136.35L557.441 137.88L555.171 136.25L551.851 138.79L550.371 137.73L553.701 135.2L549.901 132.47L546.571 135L545.121 133.96L548.451 131.43L546.901 130.32L548.001 128.79L550.021 130.24L553.121 127.89L551.231 126.53L552.311 125.02L554.661 126.71L557.711 124.39L559.151 125.43L556.101 127.75L559.911 130.49L562.961 128.17L564.401 129.2L561.361 131.53L562.811 132.57L561.731 134.06Z" fill="#05CAE6"/>
<path d="M1051.95 155.45C1056.32 155.45 1059.87 151.904 1059.87 147.53C1059.87 143.156 1056.32 139.61 1051.95 139.61C1047.58 139.61 1044.03 143.156 1044.03 147.53C1044.03 151.904 1047.58 155.45 1051.95 155.45Z" fill="#05CAE6"/>
<path d="M1045.4 138.21C1045.9 139.09 1047.01 139.4 1047.92 138.97C1049.64 138.16 1051.63 137.86 1053.64 138.23C1055.55 138.58 1057.21 139.48 1058.5 140.74C1059.23 141.45 1060.39 141.51 1061.13 140.81C1061.99 139.99 1062.61 138.9 1062.85 137.64L1064.34 129.49C1064.52 128.5 1064.03 127.5 1063.12 127.08C1061.93 126.53 1059.75 125.83 1055.79 125.1C1051.83 124.37 1049.55 124.26 1048.24 124.35C1047.24 124.42 1046.42 125.18 1046.24 126.17L1044.75 134.32C1044.5 135.71 1044.76 137.07 1045.4 138.21Z" fill="#05CAE6"/>
<path d="M1817.23 46.1397C1822.74 46.1397 1827.2 41.676 1827.2 36.1697C1827.2 30.6634 1822.74 26.1997 1817.23 26.1997C1811.72 26.1997 1807.26 30.6634 1807.26 36.1697C1807.26 41.676 1811.72 46.1397 1817.23 46.1397Z" fill="#05CAE6"/>
<path d="M1803.59 40.5599C1804.84 40.2899 1805.62 39.0699 1805.44 37.8099C1805.11 35.4399 1805.49 32.9399 1806.68 30.6499C1807.81 28.4899 1809.52 26.8299 1811.51 25.7399C1812.63 25.1299 1813.14 23.7599 1812.58 22.6099C1811.92 21.2699 1810.84 20.1099 1809.41 19.3699L1800.18 14.5299C1799.06 13.9399 1797.67 14.1599 1796.82 15.0999C1795.71 16.3299 1794.06 18.6799 1791.71 23.1699C1789.36 27.6599 1788.36 30.3599 1787.99 31.9699C1787.7 33.1999 1788.31 34.4699 1789.43 35.0499L1798.66 39.8899C1800.24 40.7199 1801.98 40.9099 1803.59 40.5599Z" fill="#05CAE6"/>
<path d="M1838.26 318.87C1842.24 318.87 1845.47 315.642 1845.47 311.66C1845.47 307.678 1842.24 304.45 1838.26 304.45C1834.28 304.45 1831.05 307.678 1831.05 311.66C1831.05 315.642 1834.28 318.87 1838.26 318.87Z" fill="#05CAE6"/>
<path d="M1830.93 318.99C1831.65 318.4 1831.75 317.36 1831.21 316.61C1830.21 315.19 1829.63 313.46 1829.65 311.59C1829.67 309.83 1830.21 308.19 1831.14 306.84C1831.66 306.08 1831.54 305.03 1830.8 304.47C1829.93 303.82 1828.86 303.44 1827.69 303.43L1820.15 303.36C1819.24 303.35 1818.42 303.95 1818.18 304.83C1817.87 305.99 1817.58 308.05 1817.55 311.71C1817.52 315.38 1817.77 317.44 1818.06 318.6C1818.28 319.49 1819.09 320.1 1820.01 320.11L1827.55 320.18C1828.83 320.19 1830.01 319.74 1830.93 318.99Z" fill="#05CAE6"/>
<path d="M1666.45 204.59C1672.1 204.59 1676.69 200.005 1676.69 194.35C1676.69 188.694 1672.1 184.11 1666.45 184.11C1660.79 184.11 1656.21 188.694 1656.21 194.35C1656.21 200.005 1660.79 204.59 1666.45 204.59Z" fill="#05CAE6"/>
<path d="M1651.74 194.96C1653.05 195.04 1654.15 194.05 1654.33 192.74C1654.65 190.3 1655.71 187.93 1657.52 186C1659.23 184.17 1661.37 182.99 1663.64 182.46C1664.92 182.16 1665.8 180.94 1665.55 179.66C1665.26 178.15 1664.51 176.71 1663.31 175.58L1655.49 168.27C1654.54 167.38 1653.11 167.22 1652.01 167.92C1650.57 168.83 1648.3 170.71 1644.74 174.51C1641.18 178.31 1639.46 180.71 1638.65 182.2C1638.03 183.34 1638.29 184.76 1639.23 185.65L1647.05 192.96C1648.39 194.19 1650.06 194.86 1651.74 194.96Z" fill="#05CAE6"/>
<path d="M47.7806 256.31C53.1046 256.31 57.4206 251.994 57.4206 246.67C57.4206 241.346 53.1046 237.03 47.7806 237.03C42.4566 237.03 38.1406 241.346 38.1406 246.67C38.1406 251.994 42.4566 256.31 47.7806 256.31Z" fill="#05CAE6"/>
<path d="M46.2501 232.91C46.2601 234.15 47.2701 235.12 48.5001 235.19C50.8101 235.33 53.1001 236.17 55.0401 237.75C56.8701 239.24 58.1101 241.17 58.7601 243.27C59.1201 244.45 60.3201 245.2 61.5201 244.88C62.9201 244.51 64.2201 243.72 65.2001 242.51L71.5601 234.7C72.3301 233.75 72.3901 232.4 71.6701 231.41C70.7201 230.12 68.8101 228.1 65.0101 225.01C61.2101 221.92 58.8501 220.46 57.4001 219.79C56.2901 219.28 54.9701 219.61 54.2001 220.56L47.8401 228.37C46.7501 229.71 46.2401 231.32 46.2501 232.91Z" fill="#05CAE6"/>
<path d="M1497.26 218.11C1502.68 218.11 1507.07 213.718 1507.07 208.3C1507.07 202.882 1502.68 198.49 1497.26 198.49C1491.84 198.49 1487.45 202.882 1487.45 208.3C1487.45 213.718 1491.84 218.11 1497.26 218.11Z" fill="#05CAE6"/>
<path d="M1491.56 221.18C1492.18 220.09 1491.8 218.72 1490.75 218.02C1488.79 216.71 1487.21 214.8 1486.31 212.43C1485.46 210.19 1485.36 207.85 1485.87 205.68C1486.15 204.46 1485.48 203.19 1484.27 202.85C1482.85 202.46 1481.3 202.49 1479.82 203.05L1470.23 206.67C1469.07 207.11 1468.32 208.27 1468.45 209.51C1468.62 211.13 1469.27 213.88 1471.03 218.54C1472.79 223.2 1474.12 225.69 1475.06 227.03C1475.78 228.04 1477.1 228.43 1478.27 227.99L1487.86 224.37C1489.49 223.74 1490.76 222.59 1491.56 221.18Z" fill="#05CAE6"/>
<path d="M308.09 187.06C308.23 186.8 308.32 186.52 308.37 186.25L322.37 185.02C322.63 185.68 323.11 186.25 323.79 186.61C325.27 187.38 327.09 186.81 327.87 185.33C328.64 183.85 328.07 182.03 326.59 181.25C326.05 180.97 325.46 180.87 324.89 180.92L317.74 168.48C317.83 168.36 317.91 168.24 317.98 168.1C318.75 166.62 318.18 164.8 316.7 164.02C315.22 163.24 313.4 163.82 312.62 165.3C311.85 166.78 312.42 168.6 313.9 169.38C314.49 169.69 315.14 169.78 315.75 169.68L322.84 182.02C322.72 182.17 322.61 182.34 322.51 182.52C322.48 182.57 322.46 182.62 322.44 182.67L307.9 183.95C307.63 183.55 307.26 183.22 306.81 182.98C305.33 182.21 303.51 182.78 302.73 184.26C301.96 185.74 302.53 187.56 304.01 188.34C305.49 189.11 307.32 188.54 308.09 187.06Z" fill="#05CAE6"/>
<path d="M758.2 188.63C757.89 188.29 757.55 188.01 757.17 187.78L762.98 166.78C764.08 166.77 765.17 166.38 766.05 165.58C767.97 163.85 768.13 160.89 766.4 158.97C764.67 157.05 761.71 156.89 759.79 158.62C759.08 159.26 758.62 160.06 758.39 160.91L736.45 164.53C736.32 164.34 736.19 164.15 736.03 163.98C734.3 162.06 731.34 161.9 729.42 163.63C727.5 165.36 727.34 168.32 729.07 170.24C730.8 172.16 733.76 172.32 735.68 170.59C736.45 169.9 736.93 169.01 737.13 168.07L758.89 164.48C759.05 164.74 759.23 164.99 759.44 165.23C759.5 165.29 759.56 165.35 759.62 165.41L753.58 187.22C752.86 187.4 752.17 187.75 751.58 188.28C749.66 190.01 749.5 192.97 751.23 194.89C752.96 196.81 755.92 196.97 757.84 195.24C759.77 193.51 759.93 190.55 758.2 188.63Z" fill="#05CAE6"/>
<path d="M78.3909 320.54C78.6609 320.33 78.8909 320.08 79.0809 319.82L94.4509 325.25C94.4009 326.07 94.6409 326.91 95.1809 327.61C96.3709 329.13 98.5709 329.41 100.101 328.22C101.631 327.03 101.901 324.83 100.711 323.3C100.271 322.74 99.7009 322.35 99.0709 322.14L97.5009 305.58C97.6509 305.5 97.7909 305.4 97.9309 305.3C99.4509 304.11 99.7309 301.91 98.5409 300.38C97.3509 298.86 95.1509 298.58 93.6209 299.77C92.0909 300.96 91.8209 303.16 93.0109 304.69C93.4909 305.3 94.1309 305.71 94.8209 305.9L96.3809 322.32C96.1809 322.42 95.9809 322.55 95.7909 322.69C95.7409 322.73 95.6909 322.77 95.6509 322.82L79.6909 317.19C79.5909 316.64 79.3709 316.11 79.0009 315.64C77.8109 314.12 75.6109 313.84 74.0809 315.03C72.5609 316.22 72.2809 318.42 73.4709 319.95C74.6609 321.45 76.8709 321.73 78.3909 320.54Z" fill="#05CAE6"/>
<path d="M1424.13 104.11C1424.26 104.57 1424.45 105 1424.7 105.39L1409.42 122.4C1408.38 121.9 1407.17 121.75 1405.97 122.09C1403.35 122.81 1401.82 125.52 1402.55 128.14C1403.27 130.76 1405.98 132.29 1408.6 131.56C1409.56 131.29 1410.37 130.76 1410.99 130.06L1433.3 136.91C1433.33 137.15 1433.37 137.38 1433.44 137.62C1434.16 140.24 1436.87 141.77 1439.49 141.04C1442.11 140.32 1443.64 137.61 1442.91 134.99C1442.18 132.37 1439.48 130.84 1436.86 131.57C1435.81 131.86 1434.94 132.47 1434.32 133.26L1412.2 126.46C1412.18 126.14 1412.12 125.82 1412.03 125.5C1412.01 125.41 1411.97 125.33 1411.95 125.25L1427.82 107.59C1428.58 107.76 1429.39 107.75 1430.2 107.53C1432.82 106.81 1434.35 104.1 1433.62 101.48C1432.9 98.86 1430.19 97.33 1427.57 98.06C1424.94 98.78 1423.4 101.49 1424.13 104.11Z" fill="#05CAE6"/>
<path d="M101.129 44.8901C100.969 45.1701 100.849 45.4701 100.779 45.7801L85.2092 46.4801C84.9592 45.7401 84.4492 45.0801 83.7192 44.6601C82.1192 43.7401 80.0692 44.2801 79.1392 45.8901C78.2192 47.4901 78.7592 49.5401 80.3692 50.4701C80.9592 50.8101 81.6092 50.9501 82.2392 50.9101L89.5692 65.0201C89.4692 65.1501 89.3692 65.2801 89.2892 65.4301C88.3692 67.0301 88.9092 69.0801 90.5192 70.0101C92.1292 70.9401 94.1692 70.3901 95.0992 68.7801C96.0192 67.1801 95.4792 65.1301 93.8692 64.2001C93.2292 63.8301 92.5192 63.7001 91.8292 63.7701L84.5592 49.7701C84.6992 49.6101 84.8292 49.4301 84.9492 49.2301C84.9792 49.1801 85.0092 49.1201 85.0292 49.0701L101.199 48.3401C101.479 48.7901 101.869 49.1801 102.369 49.4701C103.969 50.3901 106.019 49.8501 106.949 48.2401C107.869 46.6401 107.329 44.5901 105.719 43.6601C104.109 42.7301 102.049 43.2901 101.129 44.8901Z" fill="#05CAE6"/>
<path d="M1805.12 159.95C1805.06 160.36 1805.07 160.77 1805.13 161.16L1787.25 169.36C1786.6 168.61 1785.69 168.08 1784.64 167.93C1782.33 167.61 1780.19 169.22 1779.87 171.53C1779.55 173.84 1781.16 175.98 1783.47 176.3C1784.32 176.42 1785.15 176.27 1785.87 175.93L1801.13 188.97C1801.07 189.17 1801.02 189.37 1800.99 189.58C1800.67 191.89 1802.28 194.03 1804.59 194.35C1806.9 194.67 1809.04 193.06 1809.36 190.75C1809.68 188.44 1808.07 186.3 1805.76 185.98C1804.83 185.85 1803.94 186.04 1803.17 186.45L1788.03 173.52C1788.12 173.26 1788.19 172.99 1788.23 172.7C1788.24 172.62 1788.24 172.55 1788.25 172.47L1806.82 163.95C1807.36 164.34 1808.01 164.62 1808.72 164.72C1811.03 165.04 1813.17 163.43 1813.49 161.12C1813.81 158.81 1812.2 156.67 1809.89 156.35C1807.58 156.03 1805.44 157.64 1805.12 159.95Z" fill="#05CAE6"/>
<path d="M93.1309 111.99L92.8809 110.01L104.781 108.49L105.031 110.47L93.1309 111.99ZM116.931 108.95L116.681 106.97L128.581 105.45L128.831 107.43L116.931 108.95ZM140.741 105.91L140.491 103.93L152.391 102.41L152.641 104.39L140.741 105.91ZM164.551 102.86L164.301 100.88L176.201 99.3598L176.451 101.34L164.551 102.86ZM188.351 99.8198L188.101 97.8398L200.001 96.3198L200.251 98.2998L188.351 99.8198ZM212.161 96.7798L211.911 94.7998L223.811 93.2798L224.061 95.2598L212.161 96.7798Z" fill="#05CAE6"/>
<path d="M256.269 259.69L247.999 250.99L249.449 249.61L257.719 258.31L256.269 259.69ZM239.749 242.29L231.479 233.59L232.929 232.21L241.199 240.91L239.749 242.29ZM223.209 224.89L214.939 216.19L216.389 214.81L224.659 223.51L223.209 224.89ZM206.689 207.49L199.279 199.69L200.729 198.31L208.139 206.11L206.689 207.49Z" fill="#05CAE6"/>
<path d="M291.549 265.83L290.449 264.16L300.469 257.55L301.569 259.22L291.549 265.83ZM311.579 252.62L310.479 250.95L320.499 244.34L321.599 246.01L311.579 252.62ZM331.619 239.4L330.519 237.73L340.539 231.12L341.639 232.79L331.619 239.4ZM351.649 226.18L350.549 224.51L360.569 217.9L361.669 219.57L351.649 226.18ZM371.679 212.97L370.579 211.3L380.599 204.69L381.699 206.36L371.679 212.97Z" fill="#05CAE6"/>
<path d="M746.039 289.73L734.159 288.05L734.439 286.07L746.319 287.75L746.039 289.73ZM722.269 286.38L710.389 284.7L710.669 282.72L722.549 284.4L722.269 286.38ZM698.509 283.02L686.629 281.34L686.909 279.36L698.789 281.04L698.509 283.02ZM674.739 279.67L662.859 277.99L663.139 276.01L675.019 277.69L674.739 279.67Z" fill="#05CAE6"/>
<path d="M776.039 264.29L772.539 252.81L774.449 252.23L777.949 263.71L776.039 264.29ZM769.039 241.34L765.539 229.86L767.449 229.28L770.949 240.76L769.039 241.34ZM762.039 218.38L758.539 206.9L760.449 206.32L763.949 217.8L762.039 218.38Z" fill="#05CAE6"/>
<path d="M995.621 181.79L994.391 180.21L1003.85 172.83L1005.08 174.41L995.621 181.79ZM1014.53 167.02L1013.3 165.44L1022.76 158.06L1023.99 159.64L1014.53 167.02ZM1033.45 152.25L1032.22 150.67L1035.38 148.2L1036.61 149.78L1033.45 152.25Z" fill="#05CAE6"/>
<path d="M1434.37 285.78L1427.33 280.08L1428.59 278.53L1435.63 284.23L1434.37 285.78ZM1418.01 272.53L1408.68 264.98L1409.94 263.43L1419.27 270.98L1418.01 272.53ZM1399.35 257.43L1390.02 249.88L1391.28 248.33L1400.61 255.88L1399.35 257.43ZM1380.7 242.33L1371.37 234.78L1372.63 233.23L1381.96 240.78L1380.7 242.33Z" fill="#05CAE6"/>
<path d="M1480.14 296.99L1479.85 295.01L1491.73 293.29L1492.02 295.27L1480.14 296.99ZM1503.9 293.55L1503.61 291.57L1515.49 289.85L1515.78 291.83L1503.9 293.55ZM1527.65 290.11L1527.36 288.13L1539.24 286.41L1539.53 288.39L1527.65 290.11ZM1551.4 286.68L1551.11 284.7L1555.85 284.01L1556.14 285.99L1551.4 286.68Z" fill="#05CAE6"/>
<path d="M1701.54 74.8901L1698.1 73.0901L1699.03 71.3201L1702.47 73.1201L1701.54 74.8901ZM1687.45 67.5401L1676.81 61.9901L1677.74 60.2201L1688.38 65.7701L1687.45 67.5401ZM1666.18 56.4401L1655.54 50.8901L1656.47 49.1201L1667.11 54.6701L1666.18 56.4401Z" fill="#05CAE6"/>
<path d="M1752.65 77.76L1751.35 76.24L1760.44 68.41L1761.74 69.93L1752.65 77.76ZM1770.84 62.1L1769.54 60.58L1778.63 52.75L1779.93 54.27L1770.84 62.1Z" fill="#05CAE6"/>
</svg>