<svg width="80" height="80" viewBox="0 0 80 80" fill="none" xmlns="http://www.w3.org/2000/svg">
<path d="M40 72C57.6731 72 72 57.6731 72 40C72 22.3269 57.6731 8 40 8C22.3269 8 8 22.3269 8 40C8 57.6731 22.3269 72 40 72Z" fill="#3E4347"/>
<path d="M56.9408 49.6C60.5794 49.6 63.5291 46.6504 63.5291 43.0118C63.5291 39.3732 60.5794 36.4235 56.9408 36.4235C53.3022 36.4235 50.3526 39.3732 50.3526 43.0118C50.3526 46.6504 53.3022 49.6 56.9408 49.6Z" fill="#464D51"/>
<path d="M26.9173 52.2353C30.0361 52.2353 32.5643 49.707 32.5643 46.5882C32.5643 43.4694 30.0361 40.9412 26.9173 40.9412C23.7985 40.9412 21.2702 43.4694 21.2702 46.5882C21.2702 49.707 23.7985 52.2353 26.9173 52.2353Z" fill="#464D51"/>
<path d="M32.6584 65.4118C37.3366 65.4118 41.129 61.6193 41.129 56.9412C41.129 52.263 37.3366 48.4706 32.6584 48.4706C27.9802 48.4706 24.1878 52.263 24.1878 56.9412C24.1878 61.6193 27.9802 65.4118 32.6584 65.4118Z" fill="#464D51"/>
<path d="M32.4702 29.8353C34.5494 29.8353 36.2349 28.1498 36.2349 26.0706C36.2349 23.9914 34.5494 22.3059 32.4702 22.3059C30.3911 22.3059 28.7055 23.9914 28.7055 26.0706C28.7055 28.1498 30.3911 29.8353 32.4702 29.8353Z" fill="#464D51"/>
<path d="M44.7055 30.7765C46.7847 30.7765 48.4702 29.091 48.4702 27.0118C48.4702 24.9326 46.7847 23.2471 44.7055 23.2471C42.6263 23.2471 40.9408 24.9326 40.9408 27.0118C40.9408 29.091 42.6263 30.7765 44.7055 30.7765Z" fill="#464D51"/>
<path d="M21.2702 38.0235C23.3494 38.0235 25.0349 36.338 25.0349 34.2588C25.0349 32.1796 23.3494 30.4941 21.2702 30.4941C19.191 30.4941 17.5055 32.1796 17.5055 34.2588C17.5055 36.338 19.191 38.0235 21.2702 38.0235Z" fill="#464D51"/>
<path d="M46.5879 20.4235C47.6275 20.4235 48.4702 19.5808 48.4702 18.5412C48.4702 17.5016 47.6275 16.6588 46.5879 16.6588C45.5483 16.6588 44.7055 17.5016 44.7055 18.5412C44.7055 19.5808 45.5483 20.4235 46.5879 20.4235Z" fill="#464D51"/>
<path d="M17.5055 48.4706C18.5451 48.4706 19.3879 47.6278 19.3879 46.5882C19.3879 45.5486 18.5451 44.7059 17.5055 44.7059C16.4659 44.7059 15.6232 45.5486 15.6232 46.5882C15.6232 47.6278 16.4659 48.4706 17.5055 48.4706Z" fill="#464D51"/>
<path d="M58.8232 58.8235C59.8628 58.8235 60.7055 57.9808 60.7055 56.9412C60.7055 55.9016 59.8628 55.0588 58.8232 55.0588C57.7836 55.0588 56.9408 55.9016 56.9408 56.9412C56.9408 57.9808 57.7836 58.8235 58.8232 58.8235Z" fill="#464D51"/>
<path d="M33.4114 40.8471C34.9708 40.8471 36.2349 39.5829 36.2349 38.0235C36.2349 36.4641 34.9708 35.2 33.4114 35.2C31.852 35.2 30.5879 36.4641 30.5879 38.0235C30.5879 39.5829 31.852 40.8471 33.4114 40.8471Z" fill="#464D51"/>
<path d="M23.9996 26.5412C25.0392 26.5412 25.882 25.6984 25.882 24.6588C25.882 23.6192 25.0392 22.7765 23.9996 22.7765C22.9601 22.7765 22.1173 23.6192 22.1173 24.6588C22.1173 25.6984 22.9601 26.5412 23.9996 26.5412Z" fill="#464D51"/>
<path d="M53.1761 63.153C55.2553 63.153 56.9408 61.4674 56.9408 59.3883C56.9408 57.3091 55.2553 55.6236 53.1761 55.6236C51.0969 55.6236 49.4114 57.3091 49.4114 59.3883C49.4114 61.4674 51.0969 63.153 53.1761 63.153Z" fill="#464D51"/>
<path d="M32.6584 20.0471C32.6584 22.6824 34.729 24.7529 37.3643 24.7529C39.9996 24.7529 42.0702 22.6824 42.0702 20.0471C42.0702 17.4118 39.9996 15.3412 37.3643 15.3412C34.729 15.2471 32.6584 17.4118 32.6584 20.0471Z" fill="#464D51"/>
<circle cx="40" cy="40" r="38.5" stroke="white" stroke-width="3"/>
</svg>
