<svg width="80" height="80" viewBox="0 0 80 80" fill="none" xmlns="http://www.w3.org/2000/svg">
<path d="M40 8C22.32 8 8 22.32 8 40C8 57.68 22.32 72 40 72C57.68 72 72 57.68 72 40C72 22.32 57.68 8 40 8ZM42.4453 57.0291H36.6223V51.2062H42.4453V57.0291ZM45.7702 39.6482C43.6943 42.2342 42.3573 44.1517 42.3573 47.5294H36.6223C36.6223 40.2991 41.3898 38.2936 42.9555 34.177C45.4184 27.7031 36.7279 25.7504 36.6399 32.6465V32.6641H30.729V32.6465C30.9577 26.8235 34.0363 22.9709 39.9648 22.9709C48.1803 22.9709 53.0005 30.8345 45.7702 39.6482Z" fill="white"/>
<circle cx="40" cy="40" r="38.5" stroke="white" stroke-width="3"/>
</svg>
